<?xml version="1.0" encoding="UTF-8"?>
<svg id="Layer_2" data-name="Layer 2" xmlns="http://www.w3.org/2000/svg"
  xmlns:xlink="http://www.w3.org/1999/xlink" viewBox="0 0 57.61 55.63">
  <defs>
    <style>
      .cls-1 {
      fill: url(#linear-gradient);
      }

      .cls-2 {
      fill: #fff;
      }

      .cls-3 {
      fill: #1b2732;
      }

      .cls-4 {
      fill: url(#linear-gradient-8);
      }

      .cls-5 {
      fill: url(#linear-gradient-3);
      }

      .cls-6 {
      fill: url(#linear-gradient-4);
      }

      .cls-7 {
      fill: url(#linear-gradient-2);
      }

      .cls-8 {
      fill: url(#linear-gradient-6);
      }

      .cls-9 {
      fill: url(#linear-gradient-7);
      }

      .cls-10 {
      fill: url(#linear-gradient-5);
      }
    </style>
    <linearGradient id="linear-gradient" x1="17.8" y1="13.85" x2="46.62" y2="46.77"
      gradientUnits="userSpaceOnUse">
      <stop offset="0" stop-color="#5dbf94" />
      <stop offset=".13" stop-color="#5ab990" />
      <stop offset=".3" stop-color="#53a986" />
      <stop offset=".49" stop-color="#488f75" />
      <stop offset=".7" stop-color="#386b5e" />
      <stop offset=".91" stop-color="#243d40" />
      <stop offset="1" stop-color="#1b2732" />
    </linearGradient>
    <linearGradient id="linear-gradient-2" x1="10.56" y1="16.6" x2="15.04" y2="21.72"
      gradientUnits="userSpaceOnUse">
      <stop offset="0" stop-color="#5dbf94" />
      <stop offset="1" stop-color="#5dbf94" />
    </linearGradient>
    <linearGradient id="linear-gradient-3" x1="18.88" y1="6.33" x2="23.36" y2="11.45"
      xlink:href="#linear-gradient-2" />
    <linearGradient id="linear-gradient-4" x1="10.3" y1="5.64" x2="13.84" y2="9.69"
      xlink:href="#linear-gradient-2" />
    <linearGradient id="linear-gradient-5" x1="4.61" y1="9.77" x2="7.63" y2="13.22"
      xlink:href="#linear-gradient-2" />
    <linearGradient id="linear-gradient-6" x1="3.85" y1="3.7" x2="5.93" y2="6.08"
      xlink:href="#linear-gradient-2" />
    <linearGradient id="linear-gradient-7" x1="10.21" y1="12.02" x2="12.29" y2="14.4"
      xlink:href="#linear-gradient-2" />
    <linearGradient id="linear-gradient-8" x1="3.85" y1="16.09" x2="5.93" y2="18.47"
      xlink:href="#linear-gradient-2" />
  </defs>
  <g id="_ÎÓÈ_1" data-name="—ÎÓÈ_1">
    <g>
      <path class="cls-3"
        d="m56.22,22.7c-.65-1.81-2.24-5.35-5.53-8.76-4.82-5-9.35-6.35-11.07-6.7-.09-.02-.2-.04-.32-.06-.66-.13-1.88-.36-3.46-.84-.65-.2-1.16-.33-1.57-.43-.22-.05-.47-.12-.62-.16-.03-.03-.06-.09-.14-.22-.31-.49-.89-1.39-2.14-2.05-.91-.48-2.01-.75-3.08-.75s-2.15.28-3.02.82c-1.15-.89-2.58-1.42-4.15-1.42-1.7,0-3.25.63-4.43,1.66-1.11-1.31-2.76-2.15-4.61-2.15-1.08,0-2.09.28-2.96.78-.85-1.44-2.42-2.41-4.21-2.41C2.19,0,0,2.19,0,4.89c0,1.35.55,2.58,1.45,3.47-.6.9-.96,1.98-.96,3.13,0,.95.24,1.85.66,2.64-.72.85-1.15,1.95-1.15,3.15,0,2.7,2.19,4.89,4.89,4.89.27,0,.53-.02.79-.07-1.1,1.65-.88,3.47-.77,4.37.22,1.83,1.01,2.82,1.59,3.55.3.38.56.7.86,1.3.86,1.67,1.22,3.83,1.48,5.41.01.07.02.13.04.2.1.44,1.06,4.37,3.75,8.28,1.14,1.66,2.42,3.12,3.83,4.4.9.88,1.9,1.67,2.96,2.36,1.25.81,2.6,1.48,4.01,1.98.04.02.09.04.13.05,3.6,1.41,6.8,1.62,8.38,1.62.47,0,.83-.02,1.03-.03,3.88-.02,7.73-.92,11.17-2.62,3.5-1.73,5.86-3.93,6.96-5.09,1.7-1.8,3.1-3.84,4.16-6.05.71-1.49,1.96-4.63,2.27-8.83.37-4.97-.81-8.87-1.33-10.31Z" />
      <path class="cls-1"
        d="m54.29,32.77c-.3,4.11-1.64,7.01-1.96,7.66-.55,1.16-1.65,3.17-3.59,5.22-.61.64-2.68,2.75-6.03,4.4-4.43,2.18-8.48,2.28-9.86,2.28,0,0,0,0,0,0-.01,0-10.64,1.06-17.53-8.97-2.42-3.53-3.26-7.16-3.26-7.17,0,0,0,0,0,0-.3-1.78-.71-4.24-1.79-6.36-1.07-2.08-1.93-2.16-2.12-3.75-.08-.68-.19-1.61.33-2.28,1.38-1.78,5.31.76,7.5-1.14,1.08-.94,1.49-2.75,1.3-4.08-.23-1.58-1.26-2.2-.98-3.59.01-.07.31-1.4,1.3-1.79.94-.37,1.6.44,2.93.65,1.57.25,3.41-.4,4.4-1.47,1.87-2,.22-4.9,1.96-6.03.86-.56,2.14-.42,2.93,0,.92.49.81,1.15,1.79,1.96.75.61,1.44.59,3.26,1.14,2.02.61,3.5.86,4.08.98,4.72.96,8.74,5.11,9.38,5.77,3.19,3.3,4.49,6.71,4.81,7.6.27.74,1.49,4.26,1.14,8.97Z" />
      <circle class="cls-7" cx="12.8" cy="19.16" r="3.51" />
      <circle class="cls-5" cx="21.11" cy="8.89" r="3.51" />
      <circle class="cls-6" cx="12.06" cy="7.66" r="2.77" />
      <circle class="cls-10" cx="6.11" cy="11.49" r="2.36" />
      <circle class="cls-8" cx="4.89" cy="4.89" r="1.63" />
      <circle class="cls-9" cx="11.25" cy="13.21" r="1.63" />
      <circle class="cls-4" cx="4.89" cy="17.28" r="1.63" />
      <path class="cls-2"
        d="m24.73,20.12c-2.02,9.03-4.04,18.06-6.06,27.09.64.63,1.47,1.34,2.52,2.03,1.27.82,2.46,1.34,3.42,1.68.68-3.13,1.36-6.26,2.04-9.38l.8-3.84,2.29-11.04.85-6.54-5.86.02Z" />
      <path class="cls-2"
        d="m30.14,22.3c.44-.33.97-.68,1.57-1.02.7-.39,1.35-.68,1.93-.9.45-.15.95-.29,1.49-.41.68-.15,1.31-.24,1.87-.29.58-.06,1.27-.09,2.04-.03.82.05,1.53.18,2.12.33.52.14,1.21.37,1.96.82.85.5,1.44,1.08,1.82,1.51.34.35.74.82,1.11,1.42.41.67.66,1.3.82,1.79.12.51.23,1.05.33,1.63.13.79.2,1.53.25,2.22.02.64,0,1.37-.08,2.18-.12,1.05-.34,1.95-.57,2.69-.31.93-.75,2.01-1.39,3.18-.65,1.19-1.34,2.16-1.96,2.93-.55.62-1.4,1.43-2.61,2.12-.85.49-1.64.79-2.28.98-.76.26-1.76.52-2.93.65-1.15.12-2.15.09-2.93,0-.89-.09-2.02-.31-3.26-.82-.62-.25-1.17-.54-1.63-.82-.43-.27-.87-.54-1.3-.82.27-1.41.54-2.83.82-4.24.12.26.32.62.65.98.42.44.86.69,1.14.82.26.14.65.33,1.14.49.93.3,1.69.32,2.28.33.49,0,1.17-.02,1.96-.16l1.47-.49c.61-.34,1.46-.9,2.28-1.79.71-.77,1.18-1.54,1.47-2.12.22-.41.45-.9.65-1.47.3-.87.43-1.66.49-2.28.07-.44.15-1.05.16-1.79.01-.68.02-1.32-.16-2.12-.12-.5-.28-1.22-.82-1.96-.77-1.07-1.79-1.5-2.12-1.63-1.02-.41-1.88-.37-2.61-.33-.46.03-1.87.14-3.42.98-1.05.56-1.79,1.25-2.28,1.79.18-1.45.37-2.91.55-4.36Z" />
    </g>
  </g>
</svg>